<?xml version="1.0" standalone="no"?>
<!DOCTYPE svg PUBLIC "-//W3C//DTD SVG 20010904//EN"
 "http://www.w3.org/TR/2001/REC-SVG-20010904/DTD/svg10.dtd">
<svg version="1.0" xmlns="http://www.w3.org/2000/svg"
 width="360.000000pt" height="360.000000pt" viewBox="0 0 360.000000 360.000000"
 preserveAspectRatio="xMidYMid meet">

<g transform="translate(0.000000,360.000000) scale(0.100000,-0.100000)"
fill="#000000" stroke="none">
<path d="M0 1800 l0 -1800 1800 0 1800 0 0 1800 0 1800 -1800 0 -1800 0 0
-1800z m634 1064 l83 -76 7 -65 c15 -147 97 -293 248 -441 l85 -84 7 -76 c3
-43 13 -99 21 -126 24 -78 21 -80 -47 -35 -274 185 -462 427 -508 654 -22 106
-14 325 11 325 6 0 48 -34 93 -76z m2425 19 c16 -81 13 -165 -9 -273 -45 -217
-196 -418 -466 -620 -52 -39 -97 -70 -100 -68 -2 3 5 40 16 83 11 43 20 104
20 136 l0 57 62 54 c159 137 278 349 278 494 0 39 4 44 87 117 49 43 91 77 94
77 3 0 11 -26 18 -57z m-1067 -79 c121 -23 252 -90 332 -169 163 -160 212
-448 119 -700 -10 -26 -23 -50 -29 -52 -39 -13 -72 153 -56 283 9 78 2 116
-18 84 -24 -40 -25 -260 0 -325 6 -16 31 -60 57 -97 39 -59 46 -79 50 -132 5
-51 1 -70 -17 -105 -26 -52 -35 -47 -71 44 -18 46 -23 79 -24 150 0 110 -23
163 -102 243 -29 29 -57 61 -62 70 -17 31 -291 703 -291 713 0 12 16 12 112
-7z m-391 -164 c33 -80 64 -154 69 -165 13 -30 128 -308 167 -405 30 -77 33
-91 27 -151 -10 -106 35 -229 104 -284 14 -11 36 -29 50 -40 13 -12 43 -66 67
-124 42 -103 42 -105 28 -148 -11 -32 -22 -45 -41 -50 -15 -4 -147 -8 -293 -8
-206 0 -270 3 -282 13 -9 8 -26 43 -37 78 -32 94 -51 111 -150 140 -139 40
-175 78 -175 183 0 60 4 74 34 122 86 136 86 135 89 259 4 128 -6 195 -28 195
-12 0 -14 -9 -10 -40 12 -94 5 -240 -14 -288 -23 -61 -42 -58 -67 8 -67 174
-59 408 19 565 32 63 116 158 180 202 52 36 171 89 190 85 8 -1 40 -67 73
-147z m-564 -125 c29 -22 54 -46 57 -53 4 -8 0 -37 -8 -65 -8 -29 -18 -73 -22
-99 -3 -27 -10 -48 -14 -48 -12 0 -143 142 -177 191 -71 103 -123 241 -114
302 1 4 52 -37 114 -90 61 -54 135 -116 164 -138z m1787 193 c-11 -68 -41
-147 -84 -220 -40 -67 -198 -244 -208 -233 -7 6 -42 171 -42 196 0 9 50 58
111 110 61 52 137 115 168 142 30 26 57 47 58 47 2 0 0 -19 -3 -42z m-1556
-1241 c6 -5 12 -24 12 -41 0 -29 -8 -36 -104 -93 -57 -35 -108 -63 -114 -63
-10 0 -58 69 -51 74 30 21 143 100 172 119 37 25 56 26 85 4z m1192 -44 c43
-32 87 -63 97 -69 17 -11 17 -12 -2 -48 -11 -20 -25 -36 -32 -36 -28 0 -223
126 -223 145 0 7 4 25 10 39 16 44 59 35 150 -31z m-1096 23 c50 -21 59 -60
61 -261 1 -176 13 -251 56 -352 16 -38 22 -42 66 -50 65 -11 470 -8 508 4 35
11 50 38 78 138 16 56 21 107 23 257 3 222 13 255 87 273 21 6 27 4 27 -10 0
-17 -79 -485 -101 -600 -29 -149 -84 -182 -319 -192 -223 -9 -352 18 -401 87
-21 29 -34 89 -88 415 -23 132 -43 255 -46 273 -7 36 0 39 49 18z m-515 -34
c34 -37 201 -306 242 -392 30 -62 25 -102 -16 -139 -42 -36 -79 -48 -100 -31
-24 20 -18 43 22 76 27 22 36 38 36 60 0 34 -184 348 -213 364 -25 13 -63 13
-77 -1 -6 -6 -23 -9 -39 -7 -23 2 -30 9 -32 30 -3 22 4 31 40 52 62 37 93 34
137 -12z m2025 8 c49 -31 56 -53 24 -73 -12 -8 -28 -7 -58 3 -71 23 -82 14
-191 -170 -65 -107 -99 -175 -99 -193 0 -21 10 -39 35 -61 38 -35 44 -56 20
-76 -21 -18 -58 -5 -99 34 -40 37 -45 65 -22 119 27 66 237 406 262 426 37 29
72 26 128 -9z m-1580 -72 c3 -7 7 -30 9 -50 l6 -37 -95 -48 -95 -48 -20 24
c-11 13 -19 30 -17 38 3 11 182 129 201 132 4 1 9 -5 11 -11z m1098 -44 c125
-76 119 -70 100 -105 -9 -16 -21 -29 -27 -29 -5 0 -49 19 -97 43 -93 45 -95
48 -82 116 4 17 8 31 10 31 2 0 45 -25 96 -56z m-1346 -88 c35 -61 40 -76 25
-76 -14 0 -111 162 -104 173 8 13 34 -19 79 -97z m1574 95 c0 -12 -89 -159
-101 -167 -26 -15 -18 11 22 78 23 40 47 79 52 86 11 14 27 16 27 3z m-1040
-87 c3 -1 6 -20 5 -41 l0 -38 -45 0 c-44 0 -45 1 -48 33 -5 54 2 64 45 56 21
-4 40 -8 43 -10z m505 -34 l0 -45 -42 -3 -43 -3 0 45 c0 38 3 45 23 49 53 11
62 5 62 -43z m-314 36 c3 -3 3 -23 1 -45 l-4 -41 -74 0 -74 0 0 45 0 45 73 0
c41 0 76 -2 78 -4z m190 0 c3 -3 3 -23 1 -45 l-4 -41 -74 0 -74 0 0 45 0 45
73 0 c41 0 76 -2 78 -4z m-1498 -231 c63 -30 107 -129 86 -192 -6 -18 -16 -33
-23 -33 -10 0 -146 216 -146 233 0 12 51 7 83 -8z m2737 4 c0 -17 -130 -229
-140 -229 -19 0 -32 44 -28 92 6 53 45 112 89 135 30 16 79 17 79 2z m-2840
-27 c0 -5 29 -57 65 -117 70 -116 72 -135 12 -116 -95 32 -149 131 -117 215 9
24 40 37 40 18z m2906 -28 c18 -96 -41 -190 -133 -209 -26 -5 -33 -3 -33 8 0
24 131 237 146 237 7 0 16 -16 20 -36z m-1661 -26 c2 -7 6 -34 10 -60 6 -47 6
-48 -22 -48 -39 0 -49 9 -62 55 -17 61 -15 65 29 65 24 0 42 -5 45 -12z m162
-2 c5 -7 7 -64 4 -106 -1 -11 -90 -13 -107 -2 -13 8 -28 97 -19 112 8 13 114
9 122 -4z m169 -42 c-3 -31 -9 -61 -12 -65 -3 -5 -30 -9 -60 -9 l-54 0 0 58
c0 32 2 61 5 64 3 3 33 6 67 7 l61 2 -7 -57z m126 51 c10 -10 -14 -89 -30
-102 -9 -7 -29 -13 -45 -13 -22 0 -27 4 -23 18 2 9 8 36 11 60 7 41 8 42 44
42 21 0 40 -2 43 -5z"/>
<path d="M1475 2101 c-160 -41 -282 -259 -217 -387 55 -106 194 -163 295 -121
118 50 192 220 158 364 -25 103 -135 170 -236 144z"/>
<path d="M1743 1636 c-33 -28 -78 -106 -87 -152 -7 -33 12 -64 38 -64 17 0 60
47 81 89 l17 35 22 -44 c28 -58 66 -86 95 -71 28 16 27 44 -8 116 -29 64 -79
115 -111 115 -10 0 -31 -11 -47 -24z"/>
</g>
</svg>
